<svg version="1.1" id="Layer_1" xmlns="http://www.w3.org/2000/svg" xmlns:xlink="http://www.w3.org/1999/xlink" x="0px" y="0px"
	 width="100%" viewBox="0 0 1632 1708" enable-background="new 0 0 1632 1708" xml:space="preserve">
<path fill="#000000" opacity="1.000000" stroke="none" 
	d="
M1098.000000,1709.000000 
	C732.000122,1709.000000 366.500214,1709.000000 1.000245,1709.000000 
	C1.000163,1139.666992 1.000163,570.333862 1.000082,1.000627 
	C544.999573,1.000418 1088.999146,1.000418 1632.999023,1.000209 
	C1632.999268,570.332703 1632.999268,1139.665405 1632.999634,1708.999023 
	C1454.833374,1709.000000 1276.666626,1709.000000 1098.000000,1709.000000 
M419.052399,191.824173 
	C420.038330,201.260818 420.956635,210.705154 422.027618,220.132141 
	C423.320282,231.510834 424.056152,243.010986 426.278198,254.211548 
	C429.208710,268.983459 433.322937,283.521912 436.975830,298.148865 
	C443.844269,325.651428 454.590698,351.745575 467.197723,376.980652 
	C477.276855,397.155701 488.933167,416.489410 501.860321,435.093903 
	C514.825012,453.752350 529.317810,471.038727 544.993896,487.359161 
	C554.530273,497.287537 564.511780,506.821228 574.719177,516.061768 
	C582.838867,523.412292 591.187439,530.651794 600.173767,536.872498 
	C616.453247,548.141785 632.862671,559.347351 650.006958,569.207336 
	C665.979431,578.393372 682.638672,586.601990 699.623779,593.747986 
	C715.846863,600.573364 732.736816,605.943848 749.600708,611.076233 
	C763.699341,615.367004 778.142578,618.568420 792.516418,621.892578 
	C798.892273,623.367126 799.988159,622.087097 799.988281,615.394531 
	C799.989380,568.409302 800.017151,521.423950 799.945557,474.438843 
	C799.938293,469.675415 799.538879,464.887329 798.960754,460.154694 
	C797.059082,444.587494 795.692383,428.908264 792.789429,413.523163 
	C789.909790,398.261871 786.368347,382.985413 781.426392,368.283905 
	C772.578430,341.962311 760.583740,316.972107 746.550781,292.940918 
	C734.835693,272.878815 721.378906,254.056595 705.973389,236.804352 
	C694.844666,224.341492 682.543274,212.824799 669.990417,201.765106 
	C659.119446,192.187225 647.440613,183.449677 635.616394,175.047775 
	C616.353333,161.360016 595.647339,150.019028 573.778564,141.123581 
	C557.310120,134.424805 540.542419,128.260330 523.503479,123.226776 
	C508.755157,118.869888 493.537170,115.834473 478.342224,113.338593 
	C465.126770,111.167862 451.671204,110.303253 438.285522,109.395073 
	C432.237244,108.984703 426.101105,109.869392 419.195862,110.464447 
	C419.186310,137.301651 419.176758,164.138855 419.052399,191.824173 
M1078.375244,1565.935425 
	C1097.002808,1555.275513 1116.051514,1545.279053 1134.152710,1533.789795 
	C1157.447876,1519.003418 1178.960083,1501.642944 1198.281128,1481.942017 
	C1213.505005,1466.418823 1227.960815,1450.070190 1241.847046,1433.332642 
	C1251.067261,1422.219482 1259.052856,1410.013306 1266.897827,1397.849243 
	C1273.215942,1388.052856 1278.776978,1377.733032 1284.162598,1367.379517 
	C1290.689819,1354.831421 1297.563965,1342.348633 1302.687256,1329.213135 
	C1309.744019,1311.120361 1315.773560,1292.583862 1321.336304,1273.966431 
	C1325.044434,1261.555786 1327.516357,1248.737183 1329.897705,1235.981079 
	C1331.784302,1225.876221 1332.800781,1215.601318 1334.007080,1205.378784 
	C1335.447144,1193.176147 1337.238159,1180.975708 1337.827759,1168.723755 
	C1338.327881,1158.333618 1337.543579,1147.859741 1336.952026,1137.444336 
	C1336.158691,1123.479248 1335.532471,1109.470947 1333.861206,1095.598511 
	C1332.031006,1080.405151 1329.857910,1065.171387 1326.468628,1050.265747 
	C1320.425659,1023.689941 1312.362427,997.739502 1301.470703,972.602783 
	C1290.247070,946.700012 1277.737061,921.528931 1261.632324,898.411255 
	C1248.489380,879.545105 1234.782715,860.908691 1219.661865,843.626526 
	C1202.565918,824.087158 1183.726929,805.928162 1162.706665,790.559631 
	C1144.879517,777.525574 1126.190918,765.610352 1107.430786,753.926819 
	C1084.026978,739.351257 1058.993774,727.925720 1032.916992,719.032288 
	C1001.946350,708.469788 970.503784,699.638672 937.674500,696.998108 
	C920.297791,695.600464 902.921265,694.167603 885.524902,693.060425 
	C875.115784,692.398010 864.646362,692.652222 854.243774,691.925110 
	C839.507263,690.894958 824.739197,689.845459 810.110229,687.872681 
	C794.150269,685.720337 778.193115,683.131409 762.486938,679.608215 
	C737.794983,674.069458 713.785889,666.163696 690.107849,657.143250 
	C656.741943,644.432068 625.138245,628.297729 595.413696,608.669678 
	C579.517212,598.172791 564.323486,586.533203 549.385986,574.686401 
	C536.645752,564.582397 523.947571,554.201965 512.632935,542.578857 
	C497.496185,527.029419 483.498016,510.345581 469.402771,493.814758 
	C451.812531,473.185059 437.238159,450.458130 424.176697,426.736694 
	C423.151062,424.873962 421.639221,423.278931 420.353363,421.559479 
	C419.902252,421.788849 419.451111,422.018188 419.000000,422.247528 
	C419.000000,424.200897 419.000000,426.154236 419.000000,428.107605 
	C419.000000,529.627869 419.000000,631.148071 419.000000,732.668335 
	C419.000000,863.491089 418.907440,994.313965 419.089722,1125.136475 
	C419.120636,1147.329224 420.015503,1169.536255 421.130798,1191.705444 
	C421.696747,1202.955444 423.579071,1214.144043 424.979645,1225.346191 
	C427.852448,1248.323853 434.033142,1270.524170 440.862701,1292.574463 
	C450.708496,1324.363281 464.478302,1354.380371 480.983307,1383.243530 
	C497.611908,1412.322876 517.589478,1438.913818 540.201538,1463.499023 
	C549.852417,1473.992065 560.593506,1483.486328 570.895691,1493.375610 
	C588.127686,1509.917114 607.334778,1523.917236 627.220520,1537.045410 
	C650.912292,1552.686523 675.863647,1565.952148 702.182312,1576.581299 
	C721.435303,1584.356934 740.985107,1591.202759 761.211731,1596.182495 
	C780.043457,1600.818604 798.881409,1605.218872 818.223450,1606.977661 
	C834.594055,1608.466187 850.976929,1610.510498 867.379272,1610.777222 
	C885.890137,1611.078491 904.450867,1610.021973 922.947388,1608.871704 
	C934.516968,1608.151978 946.143311,1606.849976 957.502258,1604.592285 
	C974.041626,1601.304810 990.421570,1597.148682 1006.763794,1592.951538 
	C1031.366211,1586.632690 1054.743042,1576.974976 1078.375244,1565.935425 
z"/>
<path fill="#FF8121" opacity="1.000000" stroke="none" 
	d="
M1078.000122,1566.000244 
	C1054.743042,1576.974976 1031.366211,1586.632690 1006.763794,1592.951538 
	C990.421570,1597.148682 974.041626,1601.304810 957.502258,1604.592285 
	C946.143311,1606.849976 934.516968,1608.151978 922.947388,1608.871704 
	C904.450867,1610.021973 885.890137,1611.078491 867.379272,1610.777222 
	C850.976929,1610.510498 834.594055,1608.466187 818.223450,1606.977661 
	C798.881409,1605.218872 780.043457,1600.818604 761.211731,1596.182495 
	C740.985107,1591.202759 721.435303,1584.356934 702.182312,1576.581299 
	C675.863647,1565.952148 650.912292,1552.686523 627.220520,1537.045410 
	C607.334778,1523.917236 588.127686,1509.917114 570.895691,1493.375610 
	C560.593506,1483.486328 549.852417,1473.992065 540.201538,1463.499023 
	C517.589478,1438.913818 497.611908,1412.322876 480.983307,1383.243530 
	C464.478302,1354.380371 450.708496,1324.363281 440.862701,1292.574463 
	C434.033142,1270.524170 427.852448,1248.323853 424.979645,1225.346191 
	C423.579071,1214.144043 421.696747,1202.955444 421.130798,1191.705444 
	C420.015503,1169.536255 419.120636,1147.329224 419.089722,1125.136475 
	C418.907440,994.313965 419.000000,863.491089 419.000000,732.668335 
	C419.000000,631.148071 419.000000,529.627869 419.000000,428.107605 
	C419.000000,426.154236 419.000000,424.200897 419.000000,422.247528 
	C419.451111,422.018188 419.902252,421.788849 420.353363,421.559479 
	C421.639221,423.278931 423.151062,424.873962 424.176697,426.736694 
	C437.238159,450.458130 451.812531,473.185059 469.402771,493.814758 
	C483.498016,510.345581 497.496185,527.029419 512.632935,542.578857 
	C523.947571,554.201965 536.645752,564.582397 549.385986,574.686401 
	C564.323486,586.533203 579.517212,598.172791 595.413696,608.669678 
	C625.138245,628.297729 656.741943,644.432068 690.107849,657.143250 
	C713.785889,666.163696 737.794983,674.069458 762.486938,679.608215 
	C778.193115,683.131409 794.150269,685.720337 810.110229,687.872681 
	C824.739197,689.845459 839.507263,690.894958 854.243774,691.925110 
	C864.646362,692.652222 875.115784,692.398010 885.524902,693.060425 
	C902.921265,694.167603 920.297791,695.600464 937.674500,696.998108 
	C970.503784,699.638672 1001.946350,708.469788 1032.916992,719.032288 
	C1058.993774,727.925720 1084.026978,739.351257 1107.430786,753.926819 
	C1126.190918,765.610352 1144.879517,777.525574 1162.706665,790.559631 
	C1183.726929,805.928162 1202.565918,824.087158 1219.661865,843.626526 
	C1234.782715,860.908691 1248.489380,879.545105 1261.632324,898.411255 
	C1277.737061,921.528931 1290.247070,946.700012 1301.470703,972.602783 
	C1312.362427,997.739502 1320.425659,1023.689941 1326.468628,1050.265747 
	C1329.857910,1065.171387 1332.031006,1080.405151 1333.861206,1095.598511 
	C1335.532471,1109.470947 1336.158691,1123.479248 1336.952026,1137.444336 
	C1337.543579,1147.859741 1338.327881,1158.333618 1337.827759,1168.723755 
	C1337.238159,1180.975708 1335.447144,1193.176147 1334.007080,1205.378784 
	C1332.800781,1215.601318 1331.784302,1225.876221 1329.897705,1235.981079 
	C1327.516357,1248.737183 1325.044434,1261.555786 1321.336304,1273.966431 
	C1315.773560,1292.583862 1309.744019,1311.120361 1302.687256,1329.213135 
	C1297.563965,1342.348633 1290.689819,1354.831421 1284.162598,1367.379517 
	C1278.776978,1377.733032 1273.215942,1388.052856 1266.897827,1397.849243 
	C1259.052856,1410.013306 1251.067261,1422.219482 1241.847046,1433.332642 
	C1227.960815,1450.070190 1213.505005,1466.418823 1198.281128,1481.942017 
	C1178.960083,1501.642944 1157.447876,1519.003418 1134.152710,1533.789795 
	C1116.051514,1545.279053 1097.002808,1555.275513 1078.000122,1566.000244 
M828.772339,1303.937378 
	C838.796753,1305.975586 848.747253,1309.110229 858.863037,1309.791504 
	C873.485474,1310.776123 888.413757,1311.453003 902.877197,1309.620850 
	C927.592285,1306.490479 950.096985,1296.203003 970.277527,1281.824951 
	C980.343811,1274.653076 988.806091,1265.200073 997.839233,1256.616089 
	C1006.833313,1248.069214 1013.158020,1237.537720 1019.002991,1226.752563 
	C1028.075684,1210.011475 1033.755737,1192.290771 1036.295288,1173.249023 
	C1038.457886,1157.032349 1038.605713,1140.986084 1035.793945,1125.095947 
	C1030.432739,1094.798950 1016.821960,1068.193970 996.544739,1045.173218 
	C983.188354,1030.009766 966.937927,1018.338623 949.035522,1009.024902 
	C927.987610,998.074829 905.307739,993.224304 881.830139,992.079895 
	C860.486450,991.039551 839.105652,990.782227 817.750732,989.939758 
	C809.876587,989.629089 802.012268,988.787476 794.174377,987.911499 
	C783.775940,986.749146 773.395142,985.407043 763.030640,983.970276 
	C754.797729,982.828979 746.599731,981.434570 738.387756,980.143127 
	C731.719788,979.094543 725.054016,978.031799 718.000000,976.914001 
	C718.000000,986.361267 718.067078,995.175232 717.988098,1003.987854 
	C717.684143,1037.918945 717.254333,1071.849243 717.056946,1105.781006 
	C717.008911,1114.042969 717.938354,1122.308960 717.941040,1130.573242 
	C717.946045,1145.768066 718.297119,1160.851562 720.836731,1175.946533 
	C724.332825,1196.726807 730.869629,1216.134766 741.947266,1234.137451 
	C753.660767,1253.173462 768.743958,1268.972290 786.674866,1282.048828 
	C799.334412,1291.280884 813.398438,1298.061157 828.772339,1303.937378 
z"/>
<path fill="#FF8121" opacity="1.000000" stroke="none" 
	d="
M420.004822,110.166527 
	C426.101105,109.869392 432.237244,108.984703 438.285522,109.395073 
	C451.671204,110.303253 465.126770,111.167862 478.342224,113.338593 
	C493.537170,115.834473 508.755157,118.869888 523.503479,123.226776 
	C540.542419,128.260330 557.310120,134.424805 573.778564,141.123581 
	C595.647339,150.019028 616.353333,161.360016 635.616394,175.047775 
	C647.440613,183.449677 659.119446,192.187225 669.990417,201.765106 
	C682.543274,212.824799 694.844666,224.341492 705.973389,236.804352 
	C721.378906,254.056595 734.835693,272.878815 746.550781,292.940918 
	C760.583740,316.972107 772.578430,341.962311 781.426392,368.283905 
	C786.368347,382.985413 789.909790,398.261871 792.789429,413.523163 
	C795.692383,428.908264 797.059082,444.587494 798.960754,460.154694 
	C799.538879,464.887329 799.938293,469.675415 799.945557,474.438843 
	C800.017151,521.423950 799.989380,568.409302 799.988281,615.394531 
	C799.988159,622.087097 798.892273,623.367126 792.516418,621.892578 
	C778.142578,618.568420 763.699341,615.367004 749.600708,611.076233 
	C732.736816,605.943848 715.846863,600.573364 699.623779,593.747986 
	C682.638672,586.601990 665.979431,578.393372 650.006958,569.207336 
	C632.862671,559.347351 616.453247,548.141785 600.173767,536.872498 
	C591.187439,530.651794 582.838867,523.412292 574.719177,516.061768 
	C564.511780,506.821228 554.530273,497.287537 544.993896,487.359161 
	C529.317810,471.038727 514.825012,453.752350 501.860321,435.093903 
	C488.933167,416.489410 477.276855,397.155701 467.197723,376.980652 
	C454.590698,351.745575 443.844269,325.651428 436.975830,298.148865 
	C433.322937,283.521912 429.208710,268.983459 426.278198,254.211548 
	C424.056152,243.010986 423.320282,231.510834 422.027618,220.132141 
	C420.956635,210.705154 420.038330,201.260818 419.291962,191.033539 
	C419.687683,188.104431 419.976776,185.966141 419.979675,183.827438 
	C420.013184,159.273834 420.003204,134.720169 420.004822,110.166527 
z"/>
<path fill="#F4852F" opacity="1.000000" stroke="none" 
	d="
M419.600342,110.315491 
	C420.003204,134.720169 420.013184,159.273834 419.979675,183.827438 
	C419.976776,185.966141 419.687683,188.104431 419.349365,190.609497 
	C419.176758,164.138855 419.186310,137.301651 419.600342,110.315491 
z"/>
<path fill="#000000" opacity="1.000000" stroke="none" 
	d="
M828.417847,1303.750244 
	C813.398438,1298.061157 799.334412,1291.280884 786.674866,1282.048828 
	C768.743958,1268.972290 753.660767,1253.173462 741.947266,1234.137451 
	C730.869629,1216.134766 724.332825,1196.726807 720.836731,1175.946533 
	C718.297119,1160.851562 717.946045,1145.768066 717.941040,1130.573242 
	C717.938354,1122.308960 717.008911,1114.042969 717.056946,1105.781006 
	C717.254333,1071.849243 717.684143,1037.918945 717.988098,1003.987854 
	C718.067078,995.175232 718.000000,986.361267 718.000000,976.914001 
	C725.054016,978.031799 731.719788,979.094543 738.387756,980.143127 
	C746.599731,981.434570 754.797729,982.828979 763.030640,983.970276 
	C773.395142,985.407043 783.775940,986.749146 794.174377,987.911499 
	C802.012268,988.787476 809.876587,989.629089 817.750732,989.939758 
	C839.105652,990.782227 860.486450,991.039551 881.830139,992.079895 
	C905.307739,993.224304 927.987610,998.074829 949.035522,1009.024902 
	C966.937927,1018.338623 983.188354,1030.009766 996.544739,1045.173218 
	C1016.821960,1068.193970 1030.432739,1094.798950 1035.793945,1125.095947 
	C1038.605713,1140.986084 1038.457886,1157.032349 1036.295288,1173.249023 
	C1033.755737,1192.290771 1028.075684,1210.011475 1019.002991,1226.752563 
	C1013.158020,1237.537720 1006.833313,1248.069214 997.839233,1256.616089 
	C988.806091,1265.200073 980.343811,1274.653076 970.277527,1281.824951 
	C950.096985,1296.203003 927.592285,1306.490479 902.877197,1309.620850 
	C888.413757,1311.453003 873.485474,1310.776123 858.863037,1309.791504 
	C848.747253,1309.110229 838.796753,1305.975586 828.417847,1303.750244 
z"/>
</svg>